# xmcd
# Track frame offsets:
# 150
# 19179
# 44681
# 65531
# 87315
# 107363
# 133486
# 174619
# 190369
# 203597
# 229414
#
# Disc length: 3379 seconds
# Revision: 0
# Processed by: cddbd v1.5.2PL0 Copyright (c) Steve Scherf et al.
# Submitted via: VisiTrax 2.10.0.248 - For more info visit www.synapsa.com
#
DISCID=9f0d310b
DTITLE=Sugar Blue - Code Blue
DYEAR=2007
DGENRE=Blues
TTITLE0=Krystalline
TTITLE1=Chicago Blues
TTITLE2=Bluesman
TTITLE3=Walking Alone
TTITLE4=Cold Blooded Man
TTITLE5=Nola
TTITLE6=Bad Boys Heaven
TTITLE7=Let It Go
TTITLE8=Shed No Tears
TTITLE9=I Don't Know Why
TTITLE10=High You Can't Buy
EXTD=
EXTT0=
EXTT1=
EXTT2=
EXTT3=
EXTT4=
EXTT5=
EXTT6=
EXTT7=
EXTT8=
EXTT9=
EXTT10=
PLAYORDER=
